<svg xmlns="http://www.w3.org/2000/svg" viewBox="0 0 163.39 188.92"><defs><style>.cls-1{fill:#e74011;}</style></defs><g id="Layer_2" data-name="Layer 2"><g id="LOGO"><polygon class="cls-1" points="10.04 102.95 18.29 96.06 40.42 124.52 40.99 125.14 53.41 125.14 51.04 122.57 25.5 90.57 50.33 68.43 53.54 65.71 41.12 65.71 40.56 66.18 10.04 93.14 10.04 65.71 0 65.71 0 125.14 10.04 125.14 10.04 102.95"/><path class="cls-1" d="M43.71,161.74C43.71,174.14,39,180,26.76,180s-17-5.87-17-18.27V128.91H0v35.82c0,14.94,9.49,24.19,26.76,24.19s26.73-9.25,26.73-24.19V136.54H71.32v52.38h10V136.54h17.1v52.38h9.93V136.54h14.17v-7.63H43.71Z"/><polygon class="cls-1" points="109.48 66.75 90.11 112.66 70.42 66.74 69.96 65.71 57.33 65.71 57.33 125.14 67.26 125.14 67.26 82.95 85.27 124.09 85.72 125.14 94.17 125.14 94.63 124.09 112.54 82.99 112.54 125.14 122.48 125.14 122.48 65.71 109.94 65.71 109.48 66.75"/><path class="cls-1" d="M114.35,4.11A4.09,4.09,0,1,1,110.26,0a4.1,4.1,0,0,1,4.09,4.11"/><path class="cls-1" d="M114.35,16.43a4.09,4.09,0,1,1-4.09-4.11,4.11,4.11,0,0,1,4.09,4.11"/><path class="cls-1" d="M114.35,41.07A4.09,4.09,0,1,1,110.26,37a4.11,4.11,0,0,1,4.09,4.11"/><path class="cls-1" d="M114.35,53.39a4.09,4.09,0,1,1-4.09-4.11,4.11,4.11,0,0,1,4.09,4.11"/><path class="cls-1" d="M114.38,28.75a4.11,4.11,0,1,1-4.11-4.11,4.1,4.1,0,0,1,4.11,4.11"/><path class="cls-1" d="M102.13,28.75A4.11,4.11,0,1,1,98,24.64a4.1,4.1,0,0,1,4.11,4.11"/><path class="cls-1" d="M89.88,28.75a4.11,4.11,0,1,1-4.11-4.11,4.1,4.1,0,0,1,4.11,4.11"/><path class="cls-1" d="M138.89,28.75a4.11,4.11,0,1,1-4.11-4.11,4.1,4.1,0,0,1,4.11,4.11"/><path class="cls-1" d="M138.89,41.07A4.11,4.11,0,1,1,134.78,37a4.11,4.11,0,0,1,4.11,4.11"/><path class="cls-1" d="M126.63,28.75a4.11,4.11,0,1,1-4.1-4.11,4.1,4.1,0,0,1,4.1,4.11"/><path class="cls-1" d="M151.13,53.39a4.11,4.11,0,1,1-4.1-4.11,4.1,4.1,0,0,1,4.1,4.11"/><path class="cls-1" d="M138.89,53.39a4.11,4.11,0,1,1-4.11-4.11,4.11,4.11,0,0,1,4.11,4.11"/><path class="cls-1" d="M126.63,53.39a4.11,4.11,0,1,1-4.1-4.11,4.11,4.11,0,0,1,4.1,4.11"/><path class="cls-1" d="M163.39,53.39a4.11,4.11,0,1,1-4.11-4.11,4.11,4.11,0,0,1,4.11,4.11"/><path class="cls-1" d="M138.89,65.71a4.11,4.11,0,1,1-4.11-4.11,4.11,4.11,0,0,1,4.11,4.11"/><path class="cls-1" d="M138.89,78a4.11,4.11,0,1,1-4.11-4.1,4.11,4.11,0,0,1,4.11,4.1"/></g></g></svg>